<?xml version="1.0" encoding="utf-8"?>
<!-- Generator: Adobe Illustrator 25.2.1, SVG Export Plug-In . SVG Version: 6.00 Build 0)  -->
<svg version="1.1" id="Capa_1" xmlns="http://www.w3.org/2000/svg" xmlns:xlink="http://www.w3.org/1999/xlink" x="0px" y="0px"
	 viewBox="0 0 708.66 708.66" style="enable-background:new 0 0 708.66 708.66;" xml:space="preserve">
<style type="text/css">
	.st0{fill:#4E4D4D;}
	.st1{fill:#020203;}
</style>
<g>
	<path class="st0" d="M510.49,54.9l-2.45-1.02c-41.17-17.08-85.53-35.48-145.63-35.48c-43.66,0-95.61,9.71-160.69,36.68
		c-68.74,42.22-77.6,52.68-110.59,91.57l-9.84,11.58L53.52,203.7C5.6,319.7-5.34,415.19,81.86,557.46
		c6.44,7.44,11.87,13.87,16.24,19.06c17.92,21.25,17.92,21.25,39.24,39.23c5.17,4.36,11.58,9.77,19.75,16.74
		c8.39,5.06,15.52,9.48,21.27,13.06c23.66,14.7,23.66,14.7,49.46,25.19c6.28,2.55,14.05,5.72,24.01,9.84
		c9.59,2.23,17.75,4.24,24.33,5.87c27.01,6.67,27.01,6.67,54.81,8.68c6.75,0.49,15.11,1.1,25.83,1.94
		c96.17-7.65,145.15-18.81,239.99-99.81c51.04-59.87,88.4-103.6,99.15-240.28C686.04,232.04,652.5,142.06,510.49,54.9z
		 M613.44,294.77c5.17,20.96,5.23,21.35,6.79,42.89l1.44,19.32l-1.44,20.28c-1.56,21.53-1.62,21.94-6.8,42.9l-4.9,19.73
		c-24.14,58.38-32.08,67.59-55.66,94.91l-8.55,9.93c-49.2,42.1-68.25,56.09-145.99,74.72l-20.28,1.75
		c-10.77,0.92-16.24,1.37-21.72,1.37c-5.48,0-10.96-0.45-21.7-1.37l-19.33-1.61l-10.44-2.41c-41.93-9.96-50.66-12.03-104.1-44.8
		c-81.66-69.61-92.58-115.21-106.41-172.96c-5.11-63.47-2.32-74.91,6.88-112.81l2.58-10.71c39.16-94.58,73.78-119.2,131.61-154.67
		c59.07-24.52,69.73-25.32,109.39-28.3l11.04-0.83c68.69,5.31,91.13,10.6,156.07,50.38c55.58,47.34,69.01,65.83,96.61,132.5
		L613.44,294.77z"/>
	<g>
		<polygon class="st1" points="168.88,315.2 171.78,326.64 191.09,316.22 191.43,316.22 191.43,413.25 205.95,413.25 205.95,302.22 
			193.14,302.22 		"/>
		<path class="st1" d="M283.45,300.34c-22.55,0-38.6,20.5-38.6,57.74c0.34,36.73,15.03,57.06,36.73,57.06
			c24.6,0,38.61-20.84,38.61-58.59C320.18,321.18,306.86,300.34,283.45,300.34z M282.43,403.51c-13.67,0-22.55-16.4-22.55-45.27
			c0-30.24,9.57-46.29,22.72-46.29c15.54,0,22.54,17.94,22.54,45.27C305.15,385.57,297.8,403.51,282.43,403.51z"/>
		<path class="st1" d="M371.04,300.34c-22.55,0-38.61,20.5-38.61,57.74c0.34,36.73,15.03,57.06,36.73,57.06
			c24.6,0,38.6-20.84,38.6-58.59C407.77,321.18,394.44,300.34,371.04,300.34z M370.02,403.51c-13.67,0-22.55-16.4-22.55-45.27
			c0-30.24,9.57-46.29,22.72-46.29c15.54,0,22.55,17.94,22.55,45.27C392.73,385.57,385.39,403.51,370.02,403.51z"/>
		<path class="st1" d="M518.24,346.28c-14.69,0-26.82,12.47-26.82,34.85c0.17,22.21,12.13,33.31,25.97,33.31
			c14.18,0,26.47-11.61,26.47-35.01C543.86,358.24,533.79,346.28,518.24,346.28z M517.73,405.39c-9.22,0-14.69-10.75-14.52-24.94
			c0-14.01,5.12-25.12,14.52-25.12c10.42,0,14.35,11.28,14.35,24.77C532.08,394.8,527.64,405.39,517.73,405.39z"/>
		<polygon class="st1" points="509.19,300.34 443.93,415.13 453.5,415.13 518.75,300.34 		"/>
		<path class="st1" d="M471.6,333.47c0-21.18-10.25-33.13-25.79-33.13c-14.7,0-26.82,12.47-26.82,34.68
			c0.17,22.38,12.12,33.48,25.96,33.48C459.31,368.49,471.6,356.88,471.6,333.47z M430.95,334.5c0-14.02,4.95-25.12,14.34-25.12
			c10.42,0,14.35,11.28,14.35,24.77c0,14.68-4.44,25.28-14.35,25.28C435.9,359.44,430.6,348.68,430.95,334.5z"/>
	</g>
</g>
</svg>
