<?xml version="1.0" encoding="utf-8"?>
<!-- Generator: Adobe Illustrator 25.2.1, SVG Export Plug-In . SVG Version: 6.00 Build 0)  -->
<svg version="1.1" id="Capa_1" xmlns="http://www.w3.org/2000/svg" xmlns:xlink="http://www.w3.org/1999/xlink" x="0px" y="0px"
	 viewBox="0 0 708.66 708.66" style="enable-background:new 0 0 708.66 708.66;" xml:space="preserve">
<style type="text/css">
	.st0{fill:#4E4D4D;}
	.st1{fill:#B4B4B4;}
	.st2{fill:#020203;}
</style>
<g>
	<g>
		<path class="st0" d="M566.78,192.07c46.12,75.13,55.03,112.22,48.21,199.22c-18.11,75.69-30.35,95.47-74.87,147.61l-31.91,27.35
			l-9.09,5.67c-37.28,22.93-45.04,27.71-106.34,42.4l-41.91,3.39c-86.11-6.76-112.86-23.29-149.88-46.19l-2.78-1.71l-11.72,16.13
			l-32.29,44.44c74.1,45.17,121.49,68.03,249.83,58.03l52.73-12.69c89.92-37.29,133.45-63.27,199.25-170.64l0.29-0.87
			c29.98-72.32,63.97-154.3-0.72-310.37l-6.33-10.22c-30-49.19-35.41-58.06-97.77-111.32C477.15,26.84,450.74,15.46,356.54,7.64
			v74.9C464.31,91.94,508.92,124.26,566.78,192.07z"/>
		<g>
			<polygon class="st0" points="154.19,630.37 154.19,630.38 186.49,585.93 			"/>
			<polygon class="st1" points="137.73,512 77.13,556.04 108.35,592.6 144.22,623.16 188.26,562.55 161.36,539.59 			"/>
			<polygon class="st1" points="130.48,502.04 112.01,471.91 98.02,438.34 66.13,448.71 26.81,461.5 45.19,505.94 69.87,546.09 
				69.88,546.09 130.48,502.05 			"/>
			<polygon class="st1" points="49.17,441.28 94.21,426.63 85.96,392.24 83.03,356.04 8.14,356.04 11.9,403.97 23,449.79 23,449.79 
							"/>
			<polygon class="st1" points="83.02,343.73 85.82,308.49 94.22,273.11 54.97,260.36 23,249.98 11.76,296.73 8.13,343.73 			"/>
			<polygon class="st1" points="98.01,261.4 111.56,228.73 130.5,197.69 69.89,153.69 44.76,194.7 26.8,238.27 26.8,238.28 
				98.01,261.4 			"/>
			<polygon class="st1" points="107.68,107.86 77.13,143.72 77.13,143.72 137.72,187.73 137.72,187.73 160.68,160.84 188.26,137.2 
				144.23,76.63 			"/>
			<polygon class="st1" points="261.93,97.52 250.88,63.5 238.77,26.27 194.34,44.69 154.18,69.38 198.22,129.95 228.37,111.46 			
				"/>
			<polygon class="st1" points="273.65,93.7 308.02,85.43 344.23,82.52 344.23,7.64 296.3,11.4 250.49,22.46 250.48,22.46 
				255.45,37.73 			"/>
		</g>
	</g>
	<g>
		<path class="st2" d="M238.88,407.12c23.28,0,37.25-18.97,37.25-39.49c0-21.9-13.97-36.21-33.8-36.21
			c-12.41,0-21.72,5.86-27.07,12.93h-0.52c2.59-18.45,15.17-35.87,38.97-39.84c4.31-0.69,8.28-0.85,11.38-0.69v-12.42
			c-2.76,0-6.55,0.17-11.03,0.87c-14.14,1.72-26.55,7.42-35.86,16.55c-11.03,11.03-18.97,28.45-18.97,50.52
			C199.23,388.5,214.92,407.12,238.88,407.12z M215.96,356.6c4.14-8.1,12.59-13.79,21.73-13.79c13.96,0,23.1,9.65,23.1,25.69
			c0,16.03-8.79,26.89-21.9,26.89c-15.86,0-24.3-13.62-24.65-32.07C214.23,360.56,214.92,358.32,215.96,356.6z"/>
		<path class="st2" d="M325.04,407.12c24.83,0,38.96-21.04,38.96-59.14c0-35.69-13.45-56.72-37.07-56.72
			c-22.76,0-38.96,20.69-38.96,58.28C288.32,386.6,303.14,407.12,325.04,407.12z M326.08,302.97c15.69,0,22.76,18.1,22.76,45.69
			c0,28.62-7.41,46.72-22.93,46.72c-13.79,0-22.76-16.55-22.76-45.69C303.14,319.18,312.8,302.97,326.08,302.97z"/>
		<polygon class="st2" points="410.17,407.12 476.03,291.25 466.38,291.25 400.51,407.12 		"/>
		<path class="st2" d="M401.55,360.05c14.48,0,26.89-11.72,26.89-35.35c0-21.37-10.34-33.44-26.03-33.44
			c-14.83,0-27.07,12.58-27.07,35C375.51,348.84,387.58,360.05,401.55,360.05z M401.89,300.39c10.52,0,14.48,11.38,14.48,25
			c0,14.82-4.48,25.52-14.48,25.52c-9.48,0-14.83-10.87-14.48-25.17C387.41,311.59,392.41,300.39,401.89,300.39z"/>
		<path class="st2" d="M448.44,372.8c0.17,22.42,12.24,33.62,26.21,33.62c14.31,0,26.72-11.72,26.72-35.34
			c0-21.38-10.17-33.45-25.86-33.45C460.69,337.63,448.44,350.21,448.44,372.8z M489.48,371.77c0,14.83-4.48,25.52-14.48,25.52
			c-9.31,0-14.83-10.85-14.65-25.17c0-14.14,5.17-25.35,14.65-25.35C485.52,346.76,489.48,358.15,489.48,371.77z"/>
	</g>
</g>
</svg>
