<?xml version="1.0" encoding="utf-8"?>
<!-- Generator: Adobe Illustrator 25.2.1, SVG Export Plug-In . SVG Version: 6.00 Build 0)  -->
<svg version="1.1" id="Capa_1" xmlns="http://www.w3.org/2000/svg" xmlns:xlink="http://www.w3.org/1999/xlink" x="0px" y="0px"
	 viewBox="0 0 708.66 708.66" style="enable-background:new 0 0 708.66 708.66;" xml:space="preserve">
<style type="text/css">
	.st0{fill:#4E4D4D;}
	.st1{fill:#B4B4B4;}
	.st2{fill:#020203;}
</style>
<g>
	<g>
		<path class="st0" d="M509.59,138.56c50.35,42.88,66.02,58.4,96.82,132.79l4.92,19.82c5.18,21.01,5.24,21.4,6.8,42.98l1.44,19.36
			c-7.7,99.23-34.23,151.31-109.21,215.31l-35.57,21.88l-11.27,4.77c-36.58,15.34-46.41,19.45-109.4,24.44
			c-81.96-6.42-118.35-17.96-188.16-77.57c-41.64-48.65-46.07-59.45-60.76-95.25l-2.17-5.26l-6.14,2l-64.52,20.98
			c29.2,69.96,38.68,80.98,71.48,119.12l9.48,11.05l9.25,7.82c43.29,37.13,51.17,43.89,125.92,74.83l12.26,2.96
			c55.43,13.46,65.42,15.9,146.64,9.49c76.65-18.52,132.71-32.01,221.89-136.43l6.24-10.29c29.99-48.72,35.4-57.5,54.38-136.61
			c0.69-9.81,1.41-18.19,1.98-24.94c2.35-27.81,2.35-27.81,0-55.64c-0.57-6.77-1.29-15.15-2.12-25.91
			c-2.37-9.54-4.28-17.72-5.82-24.34c-6.35-27.17-6.35-27.17-17.21-52.91c-2.64-6.26-5.91-14-10.04-23.97
			c-41.22-67.13-71.34-116.27-198.31-168.91c-9.56-2.22-17.71-4.23-24.29-5.85c-27.12-6.68-27.12-6.68-54.95-8.7
			c-5.32-0.39-11.66-0.85-19.36-1.44v74.37C423.33,93.72,446.35,99.82,509.59,138.56z"/>
		<polygon class="st0" points="32.38,464.8 32.38,464.81 96.9,443.83 		"/>
		<g>
			<polygon class="st1" points="88.2,360.1 13.83,360.1 17.57,407.69 28.58,453.19 54.57,444.74 99.29,430.19 91.11,396.05 			"/>
			<polygon class="st1" points="28.58,254.79 17.42,301.21 13.82,347.87 88.19,347.87 90.97,312.88 99.3,277.76 60.33,265.1 			"/>
			<polygon class="st1" points="50.2,199.9 32.36,243.16 32.36,243.17 103.06,266.13 103.06,266.13 116.52,233.69 135.32,202.88 
				75.14,159.18 			"/>
			<polygon class="st1" points="112.67,113.67 82.33,149.28 82.33,149.29 142.49,192.98 142.5,192.98 165.3,166.27 192.69,142.81 
				148.97,82.67 			"/>
			<polygon class="st1" points="242.83,32.67 198.71,50.95 158.84,75.47 202.57,135.61 232.49,117.26 265.82,103.41 254.85,69.63 
							"/>
			<polygon class="st1" points="254.46,28.89 254.45,28.89 259.38,44.04 277.45,99.61 311.59,91.4 347.55,88.51 347.55,14.17 
				299.95,17.9 			"/>
		</g>
	</g>
	<g>
		<polygon class="st2" points="205.7,310.66 260.14,310.66 260.14,311 211.86,409.44 227.44,409.44 275.89,308.09 275.89,298.17 
			205.7,298.17 		"/>
		<path class="st2" d="M289.87,354.15c0.34,36.81,15.06,57.18,36.81,57.18c24.65,0,38.69-20.89,38.69-58.72
			c0-35.43-13.36-56.32-36.81-56.32C305.96,296.28,289.87,316.82,289.87,354.15z M327.71,307.92c15.57,0,22.59,17.97,22.59,45.37
			c0,28.42-7.36,46.39-22.77,46.39c-13.69,0-22.6-16.44-22.6-45.37C304.94,324.01,314.53,307.92,327.71,307.92z"/>
		<path class="st2" d="M402.64,364.59c14.38,0,26.7-11.64,26.7-35.1c0-21.22-10.27-33.2-25.84-33.2c-14.73,0-26.88,12.5-26.88,34.75
			C376.79,353.46,388.77,364.59,402.64,364.59z M402.98,305.35c10.44,0,14.38,11.3,14.38,24.83c0,14.72-4.45,25.34-14.38,25.34
			c-9.41,0-14.72-10.79-14.38-24.99C388.61,316.48,393.57,305.35,402.98,305.35z"/>
		<polygon class="st2" points="411.21,411.33 476.6,296.28 467.01,296.28 401.62,411.33 		"/>
		<path class="st2" d="M449.21,377.25c0.17,22.26,12.16,33.38,26.02,33.38c14.21,0,26.53-11.64,26.53-35.09
			c0-21.23-10.1-33.21-25.68-33.21C461.36,342.33,449.21,354.83,449.21,377.25z M489.95,376.22c0,14.73-4.45,25.34-14.38,25.34
			c-9.24,0-14.72-10.78-14.55-24.99c0-14.04,5.13-25.17,14.55-25.17C486.01,351.4,489.95,362.7,489.95,376.22z"/>
	</g>
</g>
</svg>
