<?xml version="1.0" encoding="utf-8"?>
<!-- Generator: Adobe Illustrator 25.2.1, SVG Export Plug-In . SVG Version: 6.00 Build 0)  -->
<svg version="1.1" id="Capa_1" xmlns="http://www.w3.org/2000/svg" xmlns:xlink="http://www.w3.org/1999/xlink" x="0px" y="0px"
	 viewBox="0 0 708.66 708.66" style="enable-background:new 0 0 708.66 708.66;" xml:space="preserve">
<style type="text/css">
	.st0{fill:#4E4D4D;}
	.st1{fill:#B4B4B4;}
	.st2{fill:#020203;}
</style>
<g>
	<g>
		<path class="st0" d="M417.95,97.07l19.06,4.65c75.75,31.28,92.56,48.26,134.37,97.27l10.92,17.52
			c11.5,18.53,11.7,18.89,19.92,39.13l7.42,18.11l4.95,20c5.23,21.2,5.29,21.61,6.87,43.37l1.46,19.56
			c-6.34,81.71-17.29,102.93-50.97,157.85C497.08,602.35,427,631.43,313.01,622.32c-62.7-14.94-71.97-20.65-106.42-41.94l-9.44-5.81
			c-53.03-45.18-68.25-62.84-97.76-134.04c-15.26-63.41-14.23-75.5-11.15-111.35l1.13-13.55l8.41-35.43l-8.85-2.87l-62.5-20.29
			c-30.14,129.95-8.1,183.24,22.23,256.52c5.25,8.42,9.64,15.69,13.18,21.54c14.58,24.11,14.58,24.11,33,45.42
			c4.49,5.18,10.05,11.6,17.12,19.89c7.6,6.4,14.02,11.94,19.2,16.42c21.31,18.43,21.31,18.43,45.43,33.01
			c5.87,3.54,13.12,7.94,22.42,13.62c9.2,3.74,17.03,7.04,23.36,9.69c25.95,10.93,25.95,10.93,53.39,17.36
			c6.67,1.55,14.94,3.49,25.53,6.04c9.9,0.71,18.35,1.42,25.18,2c28.07,2.39,28.08,2.39,56.15,0c6.83-0.58,15.3-1.29,26.17-2.14
			c9.62-2.4,17.88-4.34,24.55-5.91c27.42-6.42,27.42-6.42,53.38-17.35c6.32-2.66,14.14-5.95,24.21-10.12
			c8.43-5.25,15.7-9.65,21.56-13.19c24.11-14.58,24.11-14.58,45.42-33.01c5.18-4.47,11.6-10.02,19.88-17.1l34.96-41.04
			c46.61-76.19,57.46-102.12,65.33-202.02c-7.13-89.76-14.85-141.84-100.65-242.41c-67.92-57.99-110.05-89.2-236.73-100.1v75.01
			l13.89,1.04C396.36,91.78,396.76,91.84,417.95,97.07z"/>
		<g>
			<polygon class="st1" points="48.21,201.62 30.2,245.29 101.57,268.47 115.15,235.73 134.13,204.62 73.39,160.52 			"/>
			<polygon class="st1" points="111.26,114.58 80.64,150.53 80.64,150.53 141.37,194.63 141.37,194.63 164.39,167.67 192.03,143.99 
				147.9,83.29 			"/>
			<polygon class="st1" points="242.66,32.82 198.12,51.28 157.87,76.02 202.01,136.72 232.21,118.21 265.86,104.22 254.65,69.71 
							"/>
			<polygon class="st1" points="254.39,29 257.04,37.13 277.59,100.39 312.05,92.1 348.35,89.19 348.35,14.15 300.3,17.92 			"/>
		</g>
	</g>
	<g>
		<path class="st2" d="M257.12,353.6v-0.52c13.82-6.56,18.49-16.76,18.49-26.26c0-14-10.89-27.65-32.66-27.65
			c-19.7,0-34.73,12.1-34.73,29.89c0,9.69,5.35,19.36,17.79,25.23l0.18,0.52c-13.82,5.88-22.29,15.9-22.29,30.07
			c0,16.42,14.17,30.42,37.67,30.42c21.43,0,38.19-13.13,38.19-32.66C279.76,368.99,271.12,359.13,257.12,353.6z M222.56,328.03
			c0-9.67,6.91-17.97,19.52-17.97c13.65,0,19.01,9.34,19.01,18.32c0,10.19-7.44,17.11-17.11,20.38
			C231.03,345.32,222.56,339.27,222.56,328.03z M241.92,404.24c-14.34,0-22.99-10.02-22.47-21.43c0-10.71,7.08-19.35,20.22-23.16
			c15.2,4.32,24.71,10.89,24.71,24.54C264.38,395.77,255.57,404.24,241.92,404.24z"/>
		<path class="st2" d="M292.32,357.58c0.34,37.15,15.2,57.72,37.15,57.72c24.88,0,39.05-21.08,39.05-59.27
			c0-35.77-13.48-56.85-37.15-56.85C308.56,299.17,292.32,319.91,292.32,357.58z M330.51,310.92c15.72,0,22.8,18.14,22.8,45.79
			c0,28.68-7.43,46.83-22.98,46.83c-13.82,0-22.81-16.59-22.81-45.79C307.53,327.16,317.21,310.92,330.51,310.92z"/>
		<path class="st2" d="M453.15,380.9c0.17,22.47,12.27,33.7,26.27,33.7c14.34,0,26.78-11.75,26.78-35.42
			c0-21.43-10.19-33.53-25.92-33.53C465.42,345.65,453.15,358.27,453.15,380.9z M494.28,379.87c0,14.87-4.49,25.57-14.52,25.57
			c-9.33,0-14.86-10.88-14.69-25.23c0-14.17,5.18-25.41,14.69-25.41C490.3,354.81,494.28,366.22,494.28,379.87z"/>
		<polygon class="st2" points="414.79,415.3 480.8,299.17 471.13,299.17 405.11,415.3 		"/>
		<path class="st2" d="M406.15,368.12c14.52,0,26.95-11.74,26.95-35.43c0-21.42-10.37-33.52-26.09-33.52
			c-14.87,0-27.13,12.61-27.13,35.08C380.05,356.89,392.15,368.12,406.15,368.12z M406.49,308.33c10.54,0,14.52,11.41,14.52,25.06
			c0,14.85-4.49,25.58-14.52,25.58c-9.5,0-14.86-10.89-14.51-25.23C391.98,319.56,396.99,308.33,406.49,308.33z"/>
	</g>
</g>
</svg>
