<?xml version="1.0" encoding="utf-8"?>
<!-- Generator: Adobe Illustrator 25.2.1, SVG Export Plug-In . SVG Version: 6.00 Build 0)  -->
<svg version="1.1" id="Capa_1" xmlns="http://www.w3.org/2000/svg" xmlns:xlink="http://www.w3.org/1999/xlink" x="0px" y="0px"
	 viewBox="0 0 708.66 708.66" style="enable-background:new 0 0 708.66 708.66;" xml:space="preserve">
<style type="text/css">
	.st0{fill:#4E4D4D;}
	.st1{fill:#B4B4B4;}
	.st2{fill:#020203;}
</style>
<g>
	<g>
		<path class="st0" d="M518.12,145.46c33.1,28.13,40,33.99,73.02,87.89l4.2,9.92c16.74,40.2,20.22,48.57,25.14,111.47
			c-9.26,119.11-65.8,205.51-159.2,244.25c-93.07,38.62-207.56,20.28-284.85-45.66C98.71,487.03,71,387.48,98.39,273.01
			c25.92-62.69,38.04-83.15,92.63-130.24l-12.8-17.61l-31.19-42.89C88.5,132.31,23.52,190.83,10.57,355.7l4.27,53.55
			c21.12,87.44,36.9,137.54,137.25,223.26c74.76,45.72,102.47,57.33,201.35,65.12c89.6-7.12,141.53-14.84,241.97-100.63
			c6.38-7.58,11.91-13.97,16.38-19.15c18.36-21.23,18.36-21.23,32.89-45.26c3.54-5.85,7.91-13.09,13.58-22.34
			c31.03-75.03,32.07-88.98,35.98-140.9l1.13-14.6l-4.29-53.58c-19.02-78.91-26.37-90.81-53.71-135.09l-7.43-12.09
			c-53.12-62.16-65.04-69.41-109.13-96.24l-12.84-7.82C432.96,18.9,419,17.86,367.12,13.95l-8.01-0.61v74.83
			c75.78,6.37,97.23,17.57,150.73,50.33L518.12,145.46z"/>
		<g>
			<polygon class="st1" points="241.48,31.97 197.09,50.36 156.98,75.02 200.97,135.53 231.08,117.06 264.61,103.14 253.57,69.16 
							"/>
			<polygon class="st1" points="253.18,28.16 253.17,28.16 258.13,43.41 276.31,99.32 310.65,91.06 346.82,88.15 346.82,13.36 
				298.94,17.12 			"/>
		</g>
	</g>
	<g>
		<path class="st2" d="M240.9,297.61c-22.91,0-38.24,18.6-38.24,39.78c0,19.12,12.92,34.28,33.07,34.28
			c11.2,0,20.15-4.48,26.35-12.06h0.51c-2.06,13.26-7.4,23.08-14.81,29.79c-6.37,6.03-14.64,9.64-23.42,10.85
			c-5.17,0.52-8.96,0.85-12.23,0.52v12.39c3.62,0.18,8.44,0,13.95-0.85c12.06-1.38,23.94-6.54,32.55-14.99
			c11.02-10.68,19.29-27.9,19.29-52.53C277.93,316.21,263.81,297.61,240.9,297.61z M261.22,348.42
			c-3.96,6.72-11.88,11.72-22.04,11.72c-13.09,0-21.53-9.82-21.53-23.78c0-15.85,9.13-27.21,22.05-27.21
			c15.84,0,22.9,14.64,22.9,33.75C262.6,345.32,262.08,347.04,261.22,348.42z"/>
		<path class="st2" d="M290.11,355.83c0.34,37.03,15.15,57.53,37.03,57.53c24.8,0,38.92-21.01,38.92-59.08
			c0-35.65-13.44-56.66-37.03-56.66C306.29,297.61,290.11,318.28,290.11,355.83z M328.17,309.32c15.67,0,22.73,18.08,22.73,45.64
			c0,28.59-7.4,46.67-22.9,46.67c-13.78,0-22.73-16.54-22.73-45.64C305.26,325.51,314.91,309.32,328.17,309.32z"/>
		<path class="st2" d="M450.4,379.07c0.17,22.39,12.23,33.58,26.18,33.58c14.29,0,26.69-11.71,26.69-35.3
			c0-21.36-10.16-33.41-25.83-33.41C462.63,343.94,450.4,356.51,450.4,379.07z M491.39,378.04c0,14.82-4.48,25.49-14.47,25.49
			c-9.3,0-14.81-10.84-14.64-25.14c0-14.12,5.16-25.32,14.64-25.32C487.43,353.06,491.39,364.43,491.39,378.04z"/>
		<polygon class="st2" points="412.17,413.35 477.96,297.61 468.32,297.61 402.52,413.35 		"/>
		<path class="st2" d="M403.56,366.33c14.47,0,26.87-11.71,26.87-35.31c0-21.35-10.33-33.4-26-33.4
			c-14.82,0-27.04,12.57-27.04,34.97C377.55,355.14,389.6,366.33,403.56,366.33z M403.9,306.74c10.51,0,14.47,11.37,14.47,24.97
			c0,14.81-4.48,25.49-14.47,25.49c-9.47,0-14.81-10.86-14.46-25.15C389.44,317.93,394.43,306.74,403.9,306.74z"/>
	</g>
</g>
</svg>
