<?xml version="1.0" encoding="utf-8"?>
<!-- Generator: Adobe Illustrator 25.2.1, SVG Export Plug-In . SVG Version: 6.00 Build 0)  -->
<svg version="1.1" id="Capa_1" xmlns="http://www.w3.org/2000/svg" xmlns:xlink="http://www.w3.org/1999/xlink" x="0px" y="0px"
	 viewBox="0 0 141.73 141.73" style="enable-background:new 0 0 141.73 141.73;" xml:space="preserve">
<style type="text/css">
	.st0{fill:#4E4D4D;}
	.st1{fill:#B4B4B4;}
	.st2{fill:#020203;}
</style>
<g>
	<g>
		<path class="st0" d="M83.19,19.22l3.8,0.93c15.1,6.24,18.45,9.62,26.78,19.39l2.18,3.49c2.29,3.69,2.33,3.76,3.97,7.8l1.48,3.61
			l0.99,3.99c1.04,4.23,1.05,4.31,1.37,8.64l0.29,3.9c-1.26,16.29-3.45,20.51-10.16,31.46c-14.92,17.51-28.89,23.3-51.61,21.48
			c-12.5-2.98-14.34-4.12-21.21-8.36l-1.88-1.16c-10.57-9-13.6-12.52-19.48-26.71c-3.04-12.64-2.84-15.05-2.22-22.19l0.23-2.7
			l1.68-7.06l-1.76-0.57L5.16,51.11c-6.01,25.9-1.61,36.52,4.43,51.13c1.05,1.68,1.92,3.13,2.63,4.29c2.91,4.8,2.91,4.8,6.58,9.05
			c0.9,1.03,2,2.31,3.41,3.96c1.51,1.28,2.79,2.38,3.83,3.27c4.25,3.67,4.25,3.67,9.05,6.58c1.17,0.71,2.61,1.58,4.47,2.72
			c1.83,0.74,3.4,1.4,4.66,1.93c5.17,2.18,5.17,2.18,10.64,3.46c1.33,0.31,2.98,0.7,5.09,1.2c1.97,0.14,3.66,0.28,5.02,0.4
			c5.59,0.48,5.6,0.48,11.19,0c1.36-0.12,3.05-0.26,5.22-0.43c1.92-0.48,3.56-0.86,4.89-1.18c5.46-1.28,5.46-1.28,10.64-3.46
			c1.26-0.53,2.82-1.19,4.83-2.02c1.68-1.05,3.13-1.92,4.3-2.63c4.8-2.91,4.8-2.91,9.05-6.58c1.03-0.89,2.31-2,3.96-3.41l6.97-8.18
			c9.29-15.18,11.45-20.35,13.02-40.26c-1.42-17.89-2.96-28.27-20.06-48.31C105.42,11.09,97.03,4.87,71.78,2.7v14.95l2.77,0.21
			C78.89,18.17,78.97,18.18,83.19,19.22z"/>
		<g>
			<polygon class="st1" points="9.5,40.06 5.91,48.76 20.13,53.38 22.84,46.86 26.62,40.66 14.52,31.87 			"/>
			<polygon class="st1" points="22.07,22.71 15.96,29.88 15.96,29.88 28.07,38.67 28.07,38.67 32.66,33.3 38.17,28.57 29.37,16.48 
							"/>
			<polygon class="st1" points="48.26,6.42 39.38,10.1 31.36,15.03 40.15,27.13 46.17,23.44 52.88,20.65 50.65,13.77 			"/>
			<polygon class="st1" points="50.59,5.66 51.12,7.28 55.22,19.88 62.09,18.23 69.32,17.65 69.32,2.7 59.74,3.45 			"/>
		</g>
	</g>
	<g>
		<path class="st2" d="M51.14,70.35v-0.1c2.76-1.31,3.69-3.34,3.69-5.23c0-2.79-2.17-5.51-6.51-5.51c-3.93,0-6.92,2.41-6.92,5.96
			c0,1.93,1.07,3.86,3.55,5.03l0.04,0.1c-2.76,1.17-4.44,3.17-4.44,5.99c0,3.27,2.82,6.06,7.51,6.06c4.27,0,7.61-2.62,7.61-6.51
			C55.65,73.42,53.93,71.45,51.14,70.35z M44.25,65.25c0-1.93,1.38-3.58,3.89-3.58c2.72,0,3.79,1.86,3.79,3.65
			c0,2.03-1.48,3.41-3.41,4.06C45.94,68.7,44.25,67.49,44.25,65.25z M48.11,80.44c-2.86,0-4.58-2-4.48-4.27
			c0-2.13,1.41-3.86,4.03-4.62c3.03,0.86,4.92,2.17,4.92,4.89C52.59,78.76,50.83,80.44,48.11,80.44z"/>
		<path class="st2" d="M58.15,71.14c0.07,7.4,3.03,11.5,7.4,11.5c4.96,0,7.78-4.2,7.78-11.81c0-7.13-2.69-11.33-7.4-11.33
			C61.39,59.5,58.15,63.64,58.15,71.14z M65.77,61.85c3.13,0,4.55,3.62,4.55,9.13c0,5.72-1.48,9.33-4.58,9.33
			c-2.76,0-4.55-3.31-4.55-9.13C61.18,65.08,63.11,61.85,65.77,61.85z"/>
		<path class="st2" d="M90.21,75.79c0.03,4.48,2.45,6.72,5.24,6.72c2.86,0,5.34-2.34,5.34-7.06c0-4.27-2.03-6.68-5.17-6.68
			C92.65,68.77,90.21,71.28,90.21,75.79z M98.41,75.59c0,2.96-0.9,5.1-2.89,5.1c-1.86,0-2.96-2.17-2.93-5.03
			c0-2.82,1.03-5.06,2.93-5.06C97.61,70.59,98.41,72.87,98.41,75.59z"/>
		<polygon class="st2" points="82.56,82.65 95.72,59.5 93.79,59.5 80.63,82.65 		"/>
		<path class="st2" d="M80.84,73.25c2.89,0,5.37-2.34,5.37-7.06c0-4.27-2.07-6.68-5.2-6.68c-2.96,0-5.41,2.51-5.41,6.99
			C75.64,71.01,78.05,73.25,80.84,73.25z M80.91,61.33c2.1,0,2.89,2.27,2.89,4.99c0,2.96-0.9,5.1-2.89,5.1
			c-1.89,0-2.96-2.17-2.89-5.03C78.02,63.57,79.02,61.33,80.91,61.33z"/>
	</g>
</g>
</svg>
